<svg xmlns="http://www.w3.org/2000/svg" viewBox="0 0 591.73 737.82"><path d="M85.29,315.63c5.2,6,10,12.31,14.78,18.63,11,14.47,9.05,46.34-3.55,59.46-5.51,5.74-11,11.5-16.74,17C71,419.24,63.16,429.31,53,435.43,41.5,442.28,32.35,451.05,24,460.76,9.29,478,2,497.93,6.21,521c3,16.47,17.65,30.3,32.31,28,8.15-1.31,16.58-5.79,23.16-11,14.77-11.72,23.41-27.85,27.78-46.11a233.26,233.26,0,0,1,20.72-55.13c2.27-4.28,5.5-8.63,9.41-11.34,13.08-9.08,26.59-17.55,40.08-26,19.92-12.51,40-24.3,53.72-44.8,10.52-15.66,20.65-31.05,23.1-50,2.06-15.84,3-31.83,4.2-47.76.18-2.32-.54-4.71-.85-7.07l-2.86-.37L225.64,295.5h-3.39c-3.95-11.68-8.08-23.31-11.81-35.07s-5.46-23.73-2.15-36,6.46-24.26,9.53-36.43a89.77,89.77,0,0,0,1.35-9c-18.22,16.68-22,38.7-26.82,60.78-9-17.4-18.37-34.29-19.06-54.2-1-29,15-49.84,34.08-69.37-21.46,8.46-31,29.14-46,44.29.1-10.4.23-20.35,2.1-30,3.66-18.73,10.8-36.37,27.1-47.43C202.08,75.31,215.4,70.18,228,64c3.8-1.87,7.83-3.26,13.92-5.77-12.61-4-24,2.18-34.13-5.92C226.29,37.83,246.09,28.68,271,25.93l-13.15-10c13.26-2.06,24-4.32,34.88-5.2,6.83-.55,11.47-2.27,11.92-10.72,9.12,2.62,17.06,5.24,25.17,7.07,2.87.64,7.94.44,9-1.23,3.95-6.43,8.78-4.28,14-3.09,11.07,2.52,22.25,4.63,33.3,7.23,5.9,1.38,12,2.71,17.37,5.36,10.09,5,11.42,10.48,6.16,20.31-1.19,2.24-2.5,4.42-4.19,7.42,7.17,1.82,13.58,2.82,19.48,5.12s11.7,5.7,10.9,13.77l-25.09,5.57c8.09,4,13.41,6.88,18.87,9.38,5.26,2.41,9.64,2.07,11.63-4.52.5-1.66,1.76-3.1,3.6-6.22,12.39,4.53,24.63,8.49,36.39,13.57,5.51,2.37,11.12,6.87,9.39,14.07a101.41,101.41,0,0,1-8.33,23.52c-3.82,7.25-9.68,13.37-18.54,15.85a26.71,26.71,0,0,1-.93-3.79c-.81-11.51-4.56-14-15.18-9.31a84.31,84.31,0,0,0-12.9,7.33c-18.23,12.17-18.18,21.41,0,33.11,13.09,8.4,18.19,6.76,23.74-7.55.19-.5,1.2-.69,2.52-1.39,5.39,6,2.67,13.71,3.57,20.47,1.19,8.87-.84,11.89-9.24,14.23-5.08,1.41-10.47,1.81-15.76,2.26s-10.72-.1-16,.63C410,191,407.5,196.48,414.34,208.3a97.45,97.45,0,0,1,12.28,35.32c3,20.42-.41,40.25-3.51,60.18-.37,2.4-2.05,4.59-3.57,7.81-10.83-1.93-21.63-2.54-31.44-6-9.52-3.33-19.19-8.26-26.67-14.88s-12.32-16.17-18.32-24.44a94.57,94.57,0,0,0,3,26.1c.83,3.08,4.32,6.07,7.35,7.77,3.91,2.2,8.51,3.29,12.92,4.46,12.11,3.24,24.58,5.41,36.35,9.58,16.06,5.69,31.33,13.68,47.45,19.17,24.05,8.2,38.71,25.92,51,46.56,3.19,5.37,6.61,10.67-1.72,15.27-1.81,1-2.33,5.34-2.44,8.19-.25,6.14-1.71,11.55-6,16.9-5.35-7.22-.71-17.5-9.92-22-6.35,8.34-.68,22.1-14.25,28.59-1.41-14.3-10.57-22.52-20.71-30.2-2.1-1.59-2.45-5.33-4-7.86-6.9-11.49-13.64-23.49-28.78-25.33-5.88-.71-12,.23-16.77.38-6.13,9.07-11.79,17.46-17.47,25.84-16.73,24.65-40.78,40.65-65.65,55.76-19.18,11.66-38.31,23.42-57.18,35.59-18.53,11.95-31.14,28.42-38.43,49.55-5.7,16.51-13.13,32.47-20.39,48.4-10.82,23.73-28.35,41.13-51.44,53.23-10.45,5.47-20.71,11.38-30.62,17.77C101,659.32,92,672.4,88.75,689.53c-3.75,20-3.8,20.17,16.56,23.69,14.47,2.5,19.26,7.35,20.91,22.24-6.29.46-12.65.49-18.87,1.47-19.62,3.12-35.92-1.74-48.84-17.66-4.52-5.57-7-10.63-4.86-17.57,4.18-13.85,7.72-27.93,12.58-41.53,6.22-17.36,14.44-33.58,31-44,7.45-4.7,10.87-12.28,13.19-20.67,8.18-29.58,4.13-58.12-6.63-86.16-.85-2.2-2.64-4-4.9-7.38-3.71,5.66-6.61,10-9.43,14.42-5.32,8.33-10.33,16.88-15.93,25C60,561,28.39,560.09,15.05,548.73,1,536.79-1.23,521,.5,504.08c3.32-32.33,25.74-53.33,45.93-75.45,6.9-7.56,15.3-13.72,22.64-20.91,11.77-11.53,13.08-20,7.43-35C73.05,363.57,70.71,354,68,344.53c-.18-.6.35-1.41.67-2.54l7.48-2.51c-.7-4.86-1.73-9.3-1.86-13.77-.15-4.73.56-9.5,1.07-16.67C80.36,312.29,83.41,313.46,85.29,315.63ZM393.41,202.22c-2.16-3.52-5.28-6.47-8.12-9.56-19.39-21.11-33.89-44.81-38.23-73.93l-2.65,0c-1.24,5.89-2.48,11.78-3.9,18.49-6.52-2.3-7.6-7.95-8.15-12.66a213.26,213.26,0,0,1-1.71-31.83c.27-8.16-1.64-14.12-9.14-17.83a15.81,15.81,0,0,1-3.64-2.74c-8-7.57-6.93-12.35,3.49-16,1.43-.5,2.86-1,4.26-1.55.29-.11.42-.58,1.88-2.77-6.22-1.25-12.07-4.12-17.12-3.07-9.77,2-13,16.52-6.17,25.33,2.25,2.9,5.44,6,8.78,7,9.56,2.67,10.9,9,10.21,17.5a101.07,101.07,0,0,0,.47,17.12c2,22.26,10.51,41,29.13,54.58,15.95,11.68,31.48,24,39.63,43.25l4-1.78C395.44,208.48,395.08,205,393.41,202.22Z" style="fill:#ce0014"/><path d="M227.53,545.65c7.95,2.78,15.12,5.08,22.12,7.81,8.14,3.18,16.32,6.34,24.14,10.2,20,9.9,29.65,26.6,30.17,48.62.22,9.08-.3,18.18-.5,28.08,2,.39,4.44,1.28,7,1.33q53.65,1.17,107.31,2.11c2.28,0,4.7.34,6.82-.28,3.83-1.11,10.28-2.35,10.62-4.38a19.84,19.84,0,0,0-3.22-13.52c-6.14-8.63-15.79-10.21-25.62-8.9-7.51,1-14.83,3.36-22.3,4.8a48.64,48.64,0,0,1-12.39,1.23c-19.75-1.43-24.88-8.33-22.25-27.8,2.94-21.78,7.81-43.37,4.31-65.72-4.49-28.65-20.76-47.49-46.65-58.78a13.17,13.17,0,0,0-9.57.13c-9.36,4.18-18.42,9.06-27.54,13.78C245.64,496.92,234.44,518.65,227.53,545.65Z" style="fill:#ce0014"/><path d="M435.48,310.13a102.55,102.55,0,0,0,41.28-22.42c15.4-13.61,25.53-31.1,35.77-48.5,6.94-11.82,13.44-23.9,20.46-35.66,9-15.07,13.88-19.55,32.54-14.26,1,.29,2.21-.1,3.82-.21,3.28-6.7-2.86-10.89-3.59-17.29,3.09,2.41,6.33,4.65,9.23,7.28,2.64,2.39,4.91,5.2,8.28,8.85,3.63-11.2-4.23-16.43-5.9-24.63l13.74,15c1.81-7.65-.53-12.85-4.15-17.55-7.19-9.32-17.24-12.07-28.45-11.33-18.4,1.24-33.59,9.9-46.48,22.22a255.83,255.83,0,0,0-27.36,30.57c-10.09,13.36-21.79,24.49-36.7,31.92-8.2,4.09-11.39,9.73-11.17,19,.34,14.83-.65,29.69-1.06,44.53C435.63,301.27,435.58,304.92,435.48,310.13Z" style="fill:#ce0014"/></svg>